<svg width="25" height="24" viewBox="0 0 25 24" fill="none" xmlns="http://www.w3.org/2000/svg">
<g clip-path="url(#clip0_284_232)">
<path fill-rule="evenodd" clip-rule="evenodd" d="M16.0834 7.01118C15.0967 6.3519 13.9367 6 12.75 6V0C15.1234 0 17.4434 0.703788 19.4168 2.02237C21.3902 3.34094 22.9283 5.21509 23.8366 7.40778C24.7448 9.60048 24.9824 12.0133 24.5194 14.3411C24.0564 16.6688 22.9135 18.8071 21.2353 20.4853C19.5571 22.1635 17.4188 23.3064 15.0911 23.7694C12.7633 24.2324 10.3505 23.9948 8.15778 23.0866C5.96508 22.1783 4.09094 20.6402 2.77237 18.6668C1.45379 16.6934 0.75 14.3734 0.75 12H6.75C6.75 13.1867 7.1019 14.3467 7.76118 15.3334C8.42046 16.3201 9.35754 17.0891 10.4539 17.5433C11.5502 17.9974 12.7567 18.1162 13.9205 17.8847C15.0844 17.6532 16.1535 17.0818 16.9927 16.2427C17.8318 15.4035 18.4032 14.3344 18.6347 13.1705C18.8662 12.0067 18.7474 10.8002 18.2933 9.70392C17.8391 8.60754 17.0701 7.67046 16.0834 7.01118Z" fill="url(#paint0_linear_284_232)"/>
<path fill-rule="evenodd" clip-rule="evenodd" d="M6.75 3.17096e-06C6.75 0.787934 6.59481 1.56815 6.29328 2.29611C5.99175 3.02406 5.54979 3.68549 4.99264 4.24264C4.43549 4.7998 3.77406 5.24175 3.0461 5.54328C2.31814 5.84481 1.53793 6 0.75 6L0.75 12C2.32586 12 3.88629 11.6896 5.3422 11.0866C6.79812 10.4835 8.121 9.59958 9.23526 8.48526C10.3496 7.371 11.2335 6.04812 11.8366 4.5922C12.4396 3.13629 12.75 1.57586 12.75 0L6.75 3.17096e-06Z" fill="url(#paint1_linear_284_232)"/>
</g>
<defs>
<linearGradient id="paint0_linear_284_232" x1="0.75" y1="0" x2="24.75" y2="24" gradientUnits="userSpaceOnUse">
<stop stop-color="white"/>
<stop offset="1" stop-color="white"/>
</linearGradient>
<linearGradient id="paint1_linear_284_232" x1="0.75" y1="0" x2="24.75" y2="24" gradientUnits="userSpaceOnUse">
<stop stop-color="white"/>
<stop offset="1" stop-color="white"/>
</linearGradient>
<clipPath id="clip0_284_232">
<rect width="24" height="24" fill="white" transform="translate(0.75)"/>
</clipPath>
</defs>
</svg>
